<svg width="148" height="29" viewBox="0 0 148 29" fill="none" xmlns="http://www.w3.org/2000/svg">
<path d="M0.109673 14.5864L13.0291 6.67072H19.7411C19.8446 6.67261 19.9431 6.71438 20.0156 6.78705C20.0881 6.85972 20.1287 6.95748 20.1286 7.05931C20.1345 7.12507 20.1202 7.19104 20.0876 7.24874C20.055 7.30644 20.0057 7.35324 19.9459 7.38313L13.5994 11.1251C13.4185 11.2483 13.2721 11.4145 13.1737 11.6082C13.0753 11.8019 13.0281 12.0168 13.0365 12.2333V14.5864H21.0791V0.913896C21.0792 0.847779 21.0657 0.782334 21.0393 0.721513C21.013 0.660692 20.9744 0.605758 20.9259 0.560026C20.8773 0.514293 20.8199 0.478712 20.757 0.45543C20.6942 0.432149 20.6271 0.421649 20.56 0.424566H12.8829L0 8.26104V14.5864H0.109673Z" fill="#231F20"/>
<path d="M106.017 14.5864H117.628V11.5208H109.695V8.94467H116.078V5.85757H109.695V3.46129H117.628V0.388586H106.017V14.5864Z" fill="#231F20"/>
<path d="M33.0189 0.388586L27.484 14.5864H31.286L32.2585 11.9238H38.4367L39.3872 14.5864H43.3135L37.7056 0.388586H33.0189ZM33.3479 8.90868L35.3732 3.34615L37.3546 8.90868H33.3479Z" fill="#231F20"/>
<path d="M59.0918 3.46129H63.7492V14.5864H67.4269V3.46129H72.0624V0.388586H59.0918V3.46129Z" fill="#231F20"/>
<path d="M53.7397 9.16055C53.7397 11.0027 52.5845 11.7511 50.6177 11.7511C48.6509 11.7511 47.4665 10.9667 47.4665 9.16055V0.388586H43.8107V9.56352C43.8107 13.6653 47.525 14.9462 50.6397 14.9462C53.7544 14.9462 57.4394 13.6653 57.4394 9.56352V0.388586H53.7836L53.7397 9.16055Z" fill="#231F20"/>
<path d="M147.993 0.388586H143.613L138.363 6.1598V0.388586H134.686L134.7 14.5864H138.363V9.19653L143.343 14.5864H147.993L141.288 7.57742L147.993 0.388586Z" fill="#231F20"/>
<path d="M97.3603 0.388586H90.6118V14.5864H97.3603C102.537 14.5864 103.941 12.6866 103.941 7.39032C103.955 2.39628 102.588 0.388586 97.3603 0.388586ZM97.2434 11.5136H94.3187V3.46129H97.2434C99.5538 3.46129 100.234 4.08015 100.234 7.38313C100.205 10.3983 99.4368 11.5136 97.2434 11.5136Z" fill="#231F20"/>
<path d="M128.749 6.23176L125.4 5.85757C123.433 5.64169 122.943 5.13797 122.943 4.50471C122.943 3.87146 123.952 3.12308 125.919 3.12308C127.886 3.12308 128.807 3.84268 128.983 4.86452H132.595C132.412 1.86377 129.853 0 126.117 0C121.686 0 119.448 1.74144 119.448 4.80695C119.448 7.31117 120.911 8.48412 123.989 8.80074L127.396 9.16055C128.698 9.29727 129.29 9.7938 129.29 10.4342C129.29 11.0747 128.427 11.8231 126.365 11.8231C123.945 11.8231 122.973 11.2186 122.812 10.0097H119.251C119.412 13.2767 121.576 14.9462 126.212 14.9462C130.445 14.9462 132.792 13.1184 132.792 10.3623C132.807 7.966 131.403 6.534 128.749 6.23176Z" fill="#231F20"/>
<path d="M80.6242 0C75.3746 0 72.6547 3.17345 72.6547 7.45509C72.6547 11.7367 75.3746 14.9462 80.6242 14.9462C85.8739 14.9462 88.6158 11.7511 88.6158 7.45509C88.6158 3.15906 85.8885 0 80.6242 0ZM80.6242 11.7511C77.9044 11.7511 76.4055 10.1176 76.4055 7.4335C76.4055 4.74938 77.8678 3.17345 80.6242 3.17345C83.3807 3.17345 84.8138 4.84293 84.8138 7.45509C84.8138 10.0672 83.3514 11.7511 80.6242 11.7511Z" fill="#231F20"/>
<path d="M33.7939 21.696H35.1465L36.9598 27.7335L38.6488 21.696H39.9721L37.8372 28.7841H36.0605L33.7939 21.696Z" fill="#231F20"/>
<path d="M44.6003 25.1861V28.7841H43.6206L43.5182 28.266C43.3056 28.4755 43.0523 28.6408 42.7735 28.7521C42.4946 28.8633 42.1959 28.9183 41.8951 28.9136C41.6727 28.9364 41.448 28.9145 41.2346 28.8493C41.0211 28.7841 40.8232 28.677 40.6531 28.5343C40.4829 28.3917 40.3438 28.2166 40.2444 28.0196C40.1449 27.8226 40.0871 27.6077 40.0745 27.3881V27.0283C40.0745 26.0856 40.9153 25.4667 42.3484 25.4667H43.3574V25.1069C43.3574 24.4665 43.0284 24.1931 42.3776 24.1931C41.8207 24.196 41.2731 24.3344 40.7837 24.596L40.3889 23.8189C41.0215 23.4421 41.7479 23.2453 42.4873 23.2504C43.9496 23.2576 44.6003 24.006 44.6003 25.1861ZM43.3574 27.4601V26.2655H42.4727C41.7415 26.2655 41.3394 26.539 41.3394 27.0859V27.2873C41.3394 27.7191 41.5953 28.0069 42.1437 28.0069C42.3745 28.01 42.6032 27.9626 42.8131 27.868C43.023 27.7734 43.2089 27.6341 43.3574 27.4601Z" fill="#231F20"/>
<path d="M47.0863 27.532C47.0863 27.827 47.1813 27.9494 47.4591 27.9494H47.6712L47.8101 28.8129C47.5756 28.8967 47.3284 28.9405 47.0789 28.9424C46.9115 28.9621 46.7417 28.9449 46.5818 28.8922C46.4218 28.8395 46.2758 28.7526 46.1541 28.6377C46.0324 28.5227 45.9382 28.3827 45.8781 28.2276C45.818 28.0725 45.7937 27.9062 45.8067 27.7407V21.2931H47.0863V27.532Z" fill="#231F20"/>
<path d="M53.2572 23.4015V28.7841H52.1751L52.08 28.1868C51.8731 28.4145 51.6195 28.5964 51.336 28.7204C51.0524 28.8445 50.7453 28.9079 50.4349 28.9065C50.2087 28.9215 49.9817 28.89 49.7685 28.8138C49.5553 28.7377 49.3606 28.6186 49.1969 28.4642C49.0331 28.3098 48.9038 28.1234 48.8174 27.9171C48.7309 27.7107 48.6892 27.4889 48.6948 27.2658V23.4015H49.967V27.2226C49.9617 27.3238 49.9781 27.425 50.0153 27.5195C50.0524 27.6141 50.1095 27.6998 50.1826 27.7712C50.2558 27.8425 50.3434 27.8978 50.4398 27.9335C50.5363 27.9692 50.6392 27.9844 50.742 27.9782C50.9915 27.9646 51.2341 27.8921 51.4491 27.7669C51.6642 27.6416 51.8455 27.4673 51.9777 27.2586V23.3727L53.2572 23.4015Z" fill="#231F20"/>
<path d="M59.1283 26.4886H55.5676C55.5676 27.5248 56.0721 27.9782 57.0299 27.9782C57.5501 27.9664 58.0565 27.8119 58.4922 27.532L58.9456 28.2516C58.3644 28.6648 57.6665 28.8887 56.9495 28.8921C56.6023 28.9173 56.2537 28.8692 55.927 28.7509C55.6002 28.6327 55.303 28.4471 55.0551 28.2065C54.8072 27.966 54.6144 27.676 54.4897 27.3562C54.365 27.0363 54.3112 26.6939 54.332 26.3519V25.7906C54.3042 25.4594 54.3475 25.1263 54.4591 24.8127C54.5708 24.4991 54.7482 24.2122 54.9799 23.9705C55.2117 23.7289 55.4925 23.538 55.8041 23.4102C56.1157 23.2824 56.4512 23.2206 56.7887 23.2288C58.251 23.2288 59.1503 24.1427 59.1503 25.8553C59.1572 26.0667 59.1499 26.2782 59.1283 26.4886ZM58.0243 25.6179C58.0243 24.6824 57.6002 24.1787 56.8106 24.1787C56.0209 24.1787 55.6188 24.6824 55.5969 25.6682H58.0243V25.6179Z" fill="#231F20"/>
<path d="M66.7908 26.9275H64.2976L63.7565 28.7841H62.4478L64.6412 21.6888H66.4033L68.7284 28.7841H67.3904L66.7908 26.9275ZM64.5974 25.9057H66.4911L65.5332 22.5883L64.5974 25.9057Z" fill="#231F20"/>
<path d="M74.0219 21.2931V28.7841H73.0276L72.8886 28.194C72.7184 28.4175 72.4976 28.5988 72.2438 28.7237C71.99 28.8486 71.7101 28.9136 71.4263 28.9136C70.1468 28.9136 69.2329 27.9134 69.2329 26.3735V25.805C69.2329 24.3226 70.1322 23.2504 71.4263 23.2504C71.9067 23.2341 72.3743 23.4047 72.7278 23.7253V21.2931H74.0219ZM72.7497 27.3449V24.6536C72.6104 24.5097 72.4424 24.3958 72.2561 24.319C72.0699 24.2422 71.8695 24.2043 71.6676 24.2074C70.9365 24.2074 70.4905 24.7543 70.4905 25.7834V26.4022C70.4905 27.4744 70.9218 27.9782 71.6164 27.9782C71.8441 27.9744 72.0672 27.9145 72.2652 27.8038C72.4632 27.6932 72.6298 27.5354 72.7497 27.3449Z" fill="#231F20"/>
<path d="M79.9955 21.2931V28.7841H79.0011L78.8622 28.194C78.6919 28.4175 78.4711 28.5988 78.2173 28.7237C77.9635 28.8486 77.6836 28.9136 77.3999 28.9136C76.1203 28.9136 75.2064 27.9134 75.2064 26.3735V25.805C75.2064 24.3226 76.113 23.2504 77.3999 23.2504C77.6379 23.2415 77.8753 23.2789 78.0986 23.3604C78.3219 23.4419 78.5267 23.5659 78.7013 23.7253V21.2931H79.9955ZM78.7233 27.3449V24.6536C78.584 24.5097 78.4159 24.3958 78.2297 24.319C78.0434 24.2422 77.843 24.2043 77.6411 24.2074C76.91 24.2074 76.464 24.7543 76.464 25.7834V26.4022C76.464 27.4744 76.9027 27.9782 77.59 27.9782C77.8176 27.9744 78.0407 27.9145 78.2387 27.8038C78.4367 27.6932 78.6033 27.5354 78.7233 27.3449Z" fill="#231F20"/>
<path d="M85.8885 26.4886H82.3571C82.3571 27.5248 82.8616 27.9782 83.8194 27.9782C84.3392 27.9642 84.845 27.8098 85.2817 27.532L85.735 28.2516C85.1532 28.6635 84.4557 28.8873 83.739 28.8921C83.3915 28.9185 83.0423 28.8712 82.7151 28.7534C82.3878 28.6356 82.09 28.45 81.8419 28.2092C81.5937 27.9684 81.401 27.678 81.2767 27.3575C81.1524 27.0371 81.0995 26.6942 81.1214 26.3519V25.7906C81.0937 25.4601 81.1368 25.1275 81.248 24.8144C81.3592 24.5014 81.536 24.2148 81.7669 23.9733C81.9979 23.7318 82.2778 23.5407 82.5885 23.4124C82.8993 23.2842 83.2339 23.2216 83.5708 23.2288C85.0331 23.2288 85.9397 24.1427 85.9397 25.8553C85.9373 26.0673 85.9202 26.2789 85.8885 26.4886ZM84.8138 25.6179C84.8138 24.6824 84.3897 24.1787 83.5927 24.1787C82.7958 24.1787 82.4009 24.6824 82.379 25.6682H84.8138V25.6179Z" fill="#231F20"/>
<path d="M91.7158 21.2931V28.7841H90.7142L90.5826 28.194C90.4071 28.4225 90.1791 28.6069 89.9173 28.7319C89.6555 28.857 89.3673 28.9193 89.0764 28.9136C87.7969 28.9136 86.8829 27.9134 86.8829 26.3735V25.805C86.8829 24.3226 87.7896 23.2504 89.1202 23.2504C89.5985 23.2337 90.064 23.4045 90.4144 23.7253V21.2931H91.7158ZM90.4363 27.3449V24.6536C90.297 24.5097 90.129 24.3958 89.9427 24.319C89.7565 24.2422 89.5561 24.2043 89.3542 24.2074C88.6231 24.2074 88.1844 24.7543 88.1844 25.7834V26.4022C88.1844 27.4744 88.6158 27.9782 89.303 27.9782C89.531 27.9758 89.7546 27.9164 89.9528 27.8056C90.151 27.6948 90.3174 27.5363 90.4363 27.3449Z" fill="#231F20"/>
<path d="M101.63 24.5313V25.7906C101.63 27.6328 100.519 28.7913 98.4425 28.7913H96.3367V21.696H98.7057C100.658 21.696 101.63 22.833 101.63 24.5313ZM100.336 24.5313C100.336 23.3799 99.7805 22.7107 98.6325 22.7107H97.6382V27.8342H98.4498C99.7073 27.8342 100.336 27.1866 100.336 25.8409V24.5313Z" fill="#231F20"/>
<path d="M104.745 23.4015V28.7841H103.465V24.3226H102.647V23.4015H104.745ZM103.283 21.8112C103.282 21.7107 103.301 21.6111 103.34 21.5181C103.378 21.4252 103.435 21.3407 103.508 21.2697C103.58 21.1986 103.665 21.1425 103.76 21.1045C103.854 21.0665 103.956 21.0474 104.058 21.0484C104.261 21.0484 104.457 21.128 104.601 21.2697C104.745 21.4114 104.825 21.6036 104.825 21.804C104.825 22.0044 104.745 22.1965 104.601 22.3382C104.457 22.4799 104.261 22.5596 104.058 22.5596C103.855 22.5596 103.66 22.4812 103.515 22.3413C103.37 22.2013 103.287 22.011 103.283 21.8112Z" fill="#231F20"/>
<path d="M105.703 28.1797L106.31 27.4601C106.748 27.8088 107.296 27.997 107.86 27.9926C108.503 27.9926 108.898 27.8055 108.898 27.4025V27.3449C108.898 26.9851 108.701 26.8268 107.984 26.5821L107.289 26.3519C106.434 26.0424 105.973 25.6323 105.973 24.963V24.74C105.973 23.8764 106.836 23.3007 108.05 23.3007C108.795 23.2904 109.522 23.5289 110.112 23.9772L109.527 24.6968C109.101 24.3969 108.588 24.2427 108.064 24.2578C107.487 24.2578 107.224 24.4953 107.224 24.7759V24.8623C107.224 25.1429 107.406 25.3228 108.108 25.5819L108.796 25.8194C109.578 26.0928 110.134 26.4454 110.134 27.2586V27.4816C110.134 28.4819 109.125 29 107.94 29C107.119 28.9985 106.325 28.7075 105.703 28.1797Z" fill="#231F20"/>
<path d="M114.425 28.7841C114.114 28.8694 113.791 28.913 113.468 28.9136C112.422 28.9136 111.815 28.4603 111.815 27.4744V24.3298H110.982V23.4015H111.866L111.969 22.0702H113.109V23.4015H114.294V24.3298H113.109V27.3809C113.109 27.7767 113.329 27.9566 113.782 27.9566C113.961 27.9594 114.14 27.9425 114.316 27.9062L114.425 28.7841Z" fill="#231F20"/>
<path d="M118.725 23.3799L118.498 24.5457C118.389 24.5347 118.278 24.5347 118.169 24.5457C117.838 24.5349 117.513 24.6352 117.247 24.83C116.982 25.0247 116.791 25.3025 116.707 25.6179V28.7841H115.449V23.4015H116.378L116.582 24.2506C116.701 23.9644 116.903 23.7193 117.164 23.5464C117.424 23.3735 117.731 23.2805 118.045 23.2792C118.276 23.2736 118.506 23.3077 118.725 23.3799Z" fill="#231F20"/>
<path d="M121.649 23.4015V28.7841H120.377V24.3226H119.551V23.4015H121.649ZM120.187 21.8112C120.186 21.7107 120.205 21.6111 120.244 21.5181C120.283 21.4252 120.34 21.3407 120.412 21.2697C120.484 21.1986 120.57 21.1425 120.664 21.1045C120.759 21.0665 120.86 21.0474 120.962 21.0484C121.166 21.0484 121.361 21.128 121.505 21.2697C121.649 21.4114 121.73 21.6036 121.73 21.804C121.73 22.0044 121.649 22.1965 121.505 22.3382C121.361 22.4799 121.166 22.5596 120.962 22.5596C120.759 22.5596 120.564 22.4812 120.419 22.3413C120.274 22.2013 120.191 22.011 120.187 21.8112Z" fill="#231F20"/>
<path d="M127.696 25.8122V26.3591C127.696 27.8486 126.716 28.9208 125.459 28.9208C125.186 28.9291 124.914 28.8802 124.662 28.7772C124.41 28.6742 124.183 28.5196 123.996 28.3236L123.894 28.7913H122.9V21.2931H124.172V23.8117C124.358 23.628 124.581 23.4841 124.826 23.3887C125.071 23.2934 125.334 23.2488 125.597 23.2576C126.87 23.2576 127.696 24.2506 127.696 25.8122ZM126.416 25.769C126.416 24.7184 126.058 24.2074 125.356 24.2074C125.13 24.2094 124.907 24.2631 124.705 24.3642C124.503 24.4654 124.328 24.6112 124.194 24.7903V27.5248C124.326 27.6703 124.488 27.7861 124.67 27.8643C124.852 27.9425 125.048 27.9814 125.247 27.9782C125.978 27.9782 126.416 27.4313 126.416 26.4022V25.769Z" fill="#231F20"/>
<path d="M133.333 23.4015V28.7841H132.251L132.156 28.1868C131.949 28.4145 131.695 28.5964 131.412 28.7204C131.128 28.8445 130.821 28.9079 130.511 28.9065C130.285 28.9204 130.058 28.8881 129.846 28.8116C129.633 28.735 129.439 28.6159 129.275 28.4617C129.112 28.3075 128.982 28.1216 128.896 27.9158C128.809 27.7099 128.766 27.4886 128.771 27.2658V23.4015H130.05V27.2226C130.038 27.3216 130.048 27.422 130.08 27.5166C130.112 27.6112 130.165 27.6977 130.235 27.7699C130.305 27.8421 130.39 27.8983 130.484 27.9343C130.579 27.9702 130.68 27.9852 130.781 27.9782C131.031 27.9664 131.275 27.8947 131.49 27.7693C131.705 27.6439 131.886 27.4685 132.017 27.2586V23.3727L133.333 23.4015Z" fill="#231F20"/>
<path d="M137.837 28.7841C137.525 28.8684 137.203 28.912 136.879 28.9136C135.826 28.9136 135.219 28.4603 135.219 27.4744V24.3298H134.386V23.4015H135.263L135.366 22.0702H136.514V23.4015H137.698V24.3298H136.514V27.3809C136.514 27.7767 136.726 27.9566 137.179 27.9566C137.358 27.9594 137.537 27.9425 137.713 27.9062L137.837 28.7841Z" fill="#231F20"/>
<path d="M143.686 25.8122V26.3591C143.686 27.0328 143.414 27.6789 142.93 28.1553C142.446 28.6316 141.79 28.8993 141.105 28.8993C140.421 28.8993 139.764 28.6316 139.28 28.1553C138.796 27.6789 138.524 27.0328 138.524 26.3591V25.8122C138.524 25.1385 138.796 24.4923 139.28 24.016C139.764 23.5396 140.421 23.272 141.105 23.272C141.79 23.272 142.446 23.5396 142.93 24.016C143.414 24.4923 143.686 25.1385 143.686 25.8122ZM139.804 26.3806C139.804 27.4457 140.242 27.9998 141.091 27.9998C141.939 27.9998 142.407 27.4457 142.407 26.3806V25.8122C142.407 24.7759 141.946 24.229 141.091 24.229C140.235 24.229 139.804 24.7543 139.804 25.7906V26.3806Z" fill="#231F20"/>
<path d="M148 23.3799L147.773 24.5457C147.664 24.5343 147.554 24.5343 147.444 24.5457C147.113 24.5349 146.788 24.6352 146.523 24.83C146.257 25.0247 146.066 25.3025 145.982 25.6179V28.7841H144.702V23.4015H145.631L145.836 24.2506C145.955 23.965 146.158 23.7204 146.418 23.5476C146.678 23.3748 146.984 23.2814 147.298 23.2792C147.536 23.2711 147.774 23.3052 148 23.3799Z" fill="#231F20"/>
</svg>
