<svg width="206" height="56" viewBox="0 0 206 56" fill="none" xmlns="http://www.w3.org/2000/svg">
<path d="M59.9443 0L7.93545 17.8951C3.19157 19.5344 0 23.9926 0 29.0097V42.2107L25.2469 55.9952L75.4303 38.8204C80.3977 37.0445 83.9246 32.3627 83.9991 27.0973V13.0643L59.9443 0Z" fill="#22326E"/>
<path d="M47.999 26.726H36.3255C35.4562 26.726 34.885 26.043 35.0216 25.1985C35.1706 24.3541 35.9902 23.6586 36.8595 23.6586H44.795C46.2604 23.6586 47.6388 22.4788 47.8996 21.0259H36.8471C34.1026 21.0259 31.8921 23.2488 31.8921 25.9809C31.8921 27.8933 33.4444 29.4457 35.3569 29.4457H46.931C47.7754 29.4457 48.3467 30.1287 48.1976 30.9607C48.0486 31.7928 47.2414 32.4634 46.397 32.4634H38.4988C37.021 32.4634 35.6177 33.6555 35.3444 35.1334L46.3473 35.1458C49.0918 35.1458 51.3023 32.8111 51.3023 30.079C51.3147 28.2286 49.8493 26.726 47.999 26.726Z" fill="white"/>
<path d="M62.4526 20.9868H50.3569C50.5432 22.2783 51.574 23.6568 53.089 23.6568C53.238 23.6568 61.7199 23.6568 61.7199 23.6568C63.2598 23.6568 64.5017 24.9235 64.5017 26.4634C64.5017 29.7792 61.8068 32.4616 58.4911 32.4616H55.4734C54.008 32.4616 52.6171 33.6786 52.3687 35.1315H59.4721C64.1664 35.1315 68.1403 31.4432 68.2521 26.7987C68.339 23.5947 65.6566 20.9868 62.4526 20.9868Z" fill="white"/>
<path d="M30.3616 32.4618H22.2896C20.7497 32.4618 19.5078 31.1951 19.5078 29.6552C19.5078 26.3395 22.2027 23.657 25.5184 23.657H28.027C29.4923 23.657 30.8708 22.44 31.1316 20.9871H24.5373C19.8431 20.9871 15.8816 24.6754 15.7574 29.3199C15.6705 32.5239 18.3529 35.1442 21.5569 35.1442H33.1434C32.9447 33.8403 31.6904 32.4618 30.3616 32.4618Z" fill="white"/>
<path d="M106.579 22.8137H104.748L104.76 21.6254H106.579C107.109 21.6254 107.552 21.508 107.909 21.2731C108.27 21.0382 108.541 20.7018 108.722 20.2639C108.906 19.826 108.998 19.3045 108.998 18.6994V18.2277C108.998 17.758 108.945 17.342 108.839 16.9797C108.737 16.6174 108.584 16.3129 108.38 16.0661C108.18 15.8193 107.933 15.6322 107.639 15.5048C107.348 15.3774 107.013 15.3137 106.632 15.3137H104.713V14.1194H106.632C107.201 14.1194 107.721 14.217 108.192 14.412C108.663 14.6031 109.069 14.8798 109.41 15.242C109.756 15.6043 110.021 16.0382 110.205 16.5438C110.39 17.0494 110.482 17.6147 110.482 18.2397V18.6994C110.482 19.3244 110.39 19.8897 110.205 20.3953C110.021 20.9009 109.756 21.3348 109.41 21.6971C109.065 22.0553 108.653 22.332 108.174 22.5271C107.699 22.7182 107.168 22.8137 106.579 22.8137ZM105.567 14.1194V22.8137H104.089V14.1194H105.567Z" fill="#8A8B94"/>
<path d="M113.543 14.1194V22.8137H112.065V14.1194H113.543Z" fill="#8A8B94"/>
<path d="M121.96 18.371V21.6911C121.839 21.8543 121.648 22.0334 121.389 22.2285C121.134 22.4196 120.795 22.5848 120.371 22.7241C119.947 22.8635 119.419 22.9331 118.787 22.9331C118.25 22.9331 117.757 22.8416 117.31 22.6584C116.863 22.4713 116.476 22.1987 116.15 21.8404C115.829 21.4821 115.579 21.0462 115.403 20.5327C115.226 20.0151 115.138 19.426 115.138 18.7651V18.162C115.138 17.5052 115.218 16.92 115.379 16.4065C115.544 15.8889 115.78 15.451 116.086 15.0928C116.392 14.7345 116.761 14.4638 117.192 14.2807C117.628 14.0936 118.12 14 118.67 14C119.372 14 119.953 14.1194 120.412 14.3583C120.875 14.5932 121.232 14.9196 121.483 15.3376C121.735 15.7556 121.894 16.2333 121.96 16.7707H120.512C120.465 16.4682 120.373 16.1975 120.236 15.9586C120.102 15.7197 119.91 15.5326 119.659 15.3973C119.411 15.258 119.09 15.1883 118.693 15.1883C118.352 15.1883 118.052 15.254 117.793 15.3854C117.534 15.5167 117.318 15.7098 117.145 15.9646C116.976 16.2193 116.849 16.5299 116.763 16.8961C116.676 17.2623 116.633 17.6803 116.633 18.1501V18.7651C116.633 19.2428 116.682 19.6668 116.78 20.037C116.882 20.4073 117.027 20.7198 117.216 20.9745C117.408 21.2293 117.642 21.4224 117.916 21.5537C118.191 21.6811 118.501 21.7448 118.846 21.7448C119.184 21.7448 119.46 21.717 119.676 21.6612C119.892 21.6015 120.063 21.5319 120.188 21.4522C120.318 21.3686 120.418 21.289 120.489 21.2134V19.4877H118.705V18.371H121.96Z" fill="#8A8B94"/>
<path d="M125.174 14.1194V22.8137H123.697V14.1194H125.174Z" fill="#8A8B94"/>
<path d="M130.36 14.1194V22.8137H128.894V14.1194H130.36ZM133.05 14.1194V15.3137H126.228V14.1194H133.05Z" fill="#8A8B94"/>
<path d="M136.953 15.2779L134.392 22.8137H132.844L136.07 14.1194H137.059L136.953 15.2779ZM139.096 22.8137L136.529 15.2779L136.417 14.1194H137.412L140.65 22.8137H139.096ZM138.972 19.5892V20.7775H134.31V19.5892H138.972Z" fill="#8A8B94"/>
<path d="M146.977 21.6254V22.8137H142.674V21.6254H146.977ZM143.086 14.1194V22.8137H141.609V14.1194H143.086Z" fill="#8A8B94"/>
<path d="M149.697 14.1194V22.8137H148.219V14.1194H149.697Z" fill="#8A8B94"/>
<path d="M157.526 21.6254V22.8137H151.575V21.6254H157.526ZM157.39 15.045L152.122 22.8137H151.133V21.8643L156.419 14.1194H157.39V15.045ZM156.843 14.1194V15.3137H151.168V14.1194H156.843Z" fill="#8A8B94"/>
<path d="M162.229 15.2779L159.668 22.8137H158.12L161.346 14.1194H162.335L162.229 15.2779ZM164.372 22.8137L161.805 15.2779L161.693 14.1194H162.688L165.926 22.8137H164.372ZM164.248 19.5892V20.7775H159.586V19.5892H164.248Z" fill="#8A8B94"/>
<path d="M169.669 14.1194V22.8137H168.204V14.1194H169.669ZM172.359 14.1194V15.3137H165.537V14.1194H172.359Z" fill="#8A8B94"/>
<path d="M175.067 14.1194V22.8137H173.59V14.1194H175.067Z" fill="#8A8B94"/>
<path d="M183.738 18.2277V18.7054C183.738 19.3623 183.653 19.9514 183.485 20.4729C183.316 20.9944 183.075 21.4383 182.761 21.8045C182.451 22.1708 182.078 22.4514 181.642 22.6465C181.207 22.8376 180.724 22.9331 180.194 22.9331C179.668 22.9331 179.188 22.8376 178.752 22.6465C178.32 22.4514 177.946 22.1708 177.628 21.8045C177.31 21.4383 177.063 20.9944 176.886 20.4729C176.713 19.9514 176.627 19.3623 176.627 18.7054V18.2277C176.627 17.5709 176.713 16.9837 176.886 16.4662C177.059 15.9447 177.302 15.5008 177.616 15.1346C177.934 14.7643 178.309 14.4837 178.74 14.2926C179.176 14.0975 179.657 14 180.182 14C180.712 14 181.195 14.0975 181.631 14.2926C182.066 14.4837 182.441 14.7643 182.755 15.1346C183.069 15.5008 183.31 15.9447 183.479 16.4662C183.652 16.9837 183.738 17.5709 183.738 18.2277ZM182.26 18.7054V18.2158C182.26 17.7301 182.213 17.3022 182.119 16.9319C182.029 16.5577 181.893 16.2452 181.713 15.9944C181.536 15.7397 181.319 15.5486 181.06 15.4212C180.801 15.2898 180.508 15.2241 180.182 15.2241C179.857 15.2241 179.566 15.2898 179.311 15.4212C179.056 15.5486 178.838 15.7397 178.658 15.9944C178.481 16.2452 178.346 16.5577 178.252 16.9319C178.158 17.3022 178.11 17.7301 178.11 18.2158V18.7054C178.11 19.1911 178.158 19.621 178.252 19.9952C178.346 20.3694 178.483 20.6859 178.664 20.9447C178.848 21.1995 179.068 21.3925 179.323 21.5239C179.578 21.6513 179.869 21.715 180.194 21.715C180.524 21.715 180.816 21.6513 181.071 21.5239C181.326 21.3925 181.542 21.1995 181.719 20.9447C181.895 20.6859 182.029 20.3694 182.119 19.9952C182.213 19.621 182.26 19.1911 182.26 18.7054Z" fill="#8A8B94"/>
<path d="M192.014 14.1194V22.8137H190.537L186.693 16.5856V22.8137H185.215V14.1194H186.693L190.548 20.3595V14.1194H192.014Z" fill="#8A8B94"/>
<path d="M110.923 31.9857V32.4634C110.923 33.1202 110.839 33.7094 110.67 34.2309C110.501 34.7524 110.26 35.1963 109.946 35.5625C109.636 35.9288 109.263 36.2094 108.828 36.4045C108.392 36.5956 107.909 36.6911 107.38 36.6911C106.854 36.6911 106.373 36.5956 105.937 36.4045C105.506 36.2094 105.131 35.9288 104.813 35.5625C104.495 35.1963 104.248 34.7524 104.072 34.2309C103.899 33.7094 103.812 33.1202 103.812 32.4634V31.9857C103.812 31.3288 103.899 30.7417 104.072 30.2241C104.244 29.7026 104.487 29.2588 104.801 28.8925C105.119 28.5223 105.494 28.2417 105.926 28.0506C106.361 27.8555 106.842 27.758 107.368 27.758C107.898 27.758 108.38 27.8555 108.816 28.0506C109.252 28.2417 109.626 28.5223 109.94 28.8925C110.254 29.2588 110.496 29.7026 110.664 30.2241C110.837 30.7417 110.923 31.3288 110.923 31.9857ZM109.446 32.4634V31.9737C109.446 31.4881 109.399 31.0601 109.304 30.6899C109.214 30.3157 109.079 30.0032 108.898 29.7524C108.722 29.4976 108.504 29.3065 108.245 29.1792C107.986 29.0478 107.694 28.9821 107.368 28.9821C107.042 28.9821 106.752 29.0478 106.497 29.1792C106.242 29.3065 106.024 29.4976 105.843 29.7524C105.667 30.0032 105.531 30.3157 105.437 30.6899C105.343 31.0601 105.296 31.4881 105.296 31.9737V32.4634C105.296 32.9491 105.343 33.379 105.437 33.7532C105.531 34.1274 105.669 34.4439 105.849 34.7026C106.034 34.9574 106.253 35.1505 106.508 35.2819C106.764 35.4093 107.054 35.473 107.38 35.473C107.709 35.473 108.002 35.4093 108.257 35.2819C108.512 35.1505 108.728 34.9574 108.904 34.7026C109.081 34.4439 109.214 34.1274 109.304 33.7532C109.399 33.379 109.446 32.9491 109.446 32.4634Z" fill="#8A8B94"/>
<path d="M113.878 27.8774V36.5717H112.401V27.8774H113.878ZM117.375 31.6811V32.8694H113.501V31.6811H117.375ZM117.863 27.8774V29.0717H113.501V27.8774H117.863Z" fill="#8A8B94"/>
<path d="M124.533 36.5717H122.702L122.714 35.3834H124.533C125.062 35.3834 125.506 35.2659 125.863 35.0311C126.224 34.7962 126.495 34.4598 126.675 34.0219C126.86 33.584 126.952 33.0625 126.952 32.4574V31.9857C126.952 31.5159 126.899 31.0999 126.793 30.7377C126.691 30.3754 126.538 30.0709 126.334 29.8241C126.134 29.5772 125.886 29.3901 125.592 29.2628C125.302 29.1354 124.966 29.0717 124.586 29.0717H122.667V27.8774H124.586C125.155 27.8774 125.675 27.9749 126.145 28.17C126.616 28.3611 127.023 28.6378 127.364 29C127.709 29.3623 127.974 29.7962 128.159 30.3018C128.343 30.8073 128.435 31.3726 128.435 31.9976V32.4574C128.435 33.0824 128.343 33.6477 128.159 34.1533C127.974 34.6589 127.709 35.0928 127.364 35.455C127.019 35.8133 126.607 36.09 126.128 36.2851C125.653 36.4761 125.121 36.5717 124.533 36.5717ZM123.52 27.8774V36.5717H122.043V27.8774H123.52Z" fill="#8A8B94"/>
<path d="M135.528 35.3834V36.5717H130.978V35.3834H135.528ZM131.396 27.8774V36.5717H129.919V27.8774H131.396ZM134.934 31.508V32.6784H130.978V31.508H134.934ZM135.499 27.8774V29.0717H130.978V27.8774H135.499Z" fill="#8A8B94"/>
<path d="M139.672 34.9833L141.927 27.8774H143.557L140.485 36.5717H139.384L139.672 34.9833ZM137.589 27.8774L139.825 34.9833L140.132 36.5717H139.025L135.964 27.8774H137.589Z" fill="#8A8B94"/>
<path d="M150.127 35.3834V36.5717H145.576V35.3834H150.127ZM145.994 27.8774V36.5717H144.517V27.8774H145.994ZM149.532 31.508V32.6784H145.576V31.508H149.532ZM150.097 27.8774V29.0717H145.576V27.8774H150.097Z" fill="#8A8B94"/>
<path d="M156.702 35.3834V36.5717H152.399V35.3834H156.702ZM152.811 27.8774V36.5717H151.333V27.8774H152.811Z" fill="#8A8B94"/>
<path d="M164.289 31.9857V32.4634C164.289 33.1202 164.205 33.7094 164.036 34.2309C163.867 34.7524 163.626 35.1963 163.312 35.5625C163.002 35.9288 162.629 36.2094 162.194 36.4045C161.758 36.5956 161.275 36.6911 160.746 36.6911C160.22 36.6911 159.739 36.5956 159.303 36.4045C158.872 36.2094 158.497 35.9288 158.179 35.5625C157.861 35.1963 157.614 34.7524 157.437 34.2309C157.265 33.7094 157.178 33.1202 157.178 32.4634V31.9857C157.178 31.3288 157.265 30.7417 157.437 30.2241C157.61 29.7026 157.853 29.2588 158.167 28.8925C158.485 28.5223 158.86 28.2417 159.292 28.0506C159.727 27.8555 160.208 27.758 160.734 27.758C161.264 27.758 161.746 27.8555 162.182 28.0506C162.618 28.2417 162.992 28.5223 163.306 28.8925C163.62 29.2588 163.861 29.7026 164.03 30.2241C164.203 30.7417 164.289 31.3288 164.289 31.9857ZM162.812 32.4634V31.9737C162.812 31.4881 162.765 31.0601 162.67 30.6899C162.58 30.3157 162.445 30.0032 162.264 29.7524C162.088 29.4976 161.87 29.3065 161.611 29.1792C161.352 29.0478 161.06 28.9821 160.734 28.9821C160.408 28.9821 160.118 29.0478 159.863 29.1792C159.608 29.3065 159.39 29.4976 159.209 29.7524C159.033 30.0032 158.897 30.3157 158.803 30.6899C158.709 31.0601 158.662 31.4881 158.662 31.9737V32.4634C158.662 32.9491 158.709 33.379 158.803 33.7532C158.897 34.1274 159.035 34.4439 159.215 34.7026C159.4 34.9574 159.619 35.1505 159.874 35.2819C160.13 35.4093 160.42 35.473 160.746 35.473C161.075 35.473 161.368 35.4093 161.623 35.2819C161.878 35.1505 162.094 34.9574 162.27 34.7026C162.447 34.4439 162.58 34.1274 162.67 33.7532C162.765 33.379 162.812 32.9491 162.812 32.4634Z" fill="#8A8B94"/>
<path d="M169.022 33.3292H166.791V32.1409H169.022C169.41 32.1409 169.724 32.0772 169.964 31.9499C170.203 31.8225 170.378 31.6473 170.488 31.4244C170.601 31.1975 170.658 30.9387 170.658 30.6481C170.658 30.3734 170.601 30.1167 170.488 29.8778C170.378 29.635 170.203 29.4399 169.964 29.2926C169.724 29.1453 169.41 29.0717 169.022 29.0717H167.244V36.5717H165.767V27.8774H169.022C169.685 27.8774 170.248 27.9968 170.711 28.2357C171.178 28.4706 171.533 28.797 171.777 29.215C172.02 29.629 172.142 30.1027 172.142 30.6362C172.142 31.1975 172.02 31.6792 171.777 32.0812C171.533 32.4833 171.178 32.7918 170.711 33.0068C170.248 33.2218 169.685 33.3292 169.022 33.3292Z" fill="#8A8B94"/>
<path d="M174.067 27.8774H175.385L177.863 34.5832L180.336 27.8774H181.654L178.381 36.5717H177.333L174.067 27.8774ZM173.466 27.8774H174.72L174.938 33.6815V36.5717H173.466V27.8774ZM181.001 27.8774H182.26V36.5717H180.783V33.6815L181.001 27.8774Z" fill="#8A8B94"/>
<path d="M189.624 35.3834V36.5717H185.074V35.3834H189.624ZM185.492 27.8774V36.5717H184.015V27.8774H185.492ZM189.03 31.508V32.6784H185.074V31.508H189.03ZM189.595 27.8774V29.0717H185.074V27.8774H189.595Z" fill="#8A8B94"/>
<path d="M197.63 27.8774V36.5717H196.152L192.308 30.3436V36.5717H190.831V27.8774H192.308L196.164 34.1175V27.8774H197.63Z" fill="#8A8B94"/>
<path d="M202.739 27.8774V36.5717H201.273V27.8774H202.739ZM205.429 27.8774V29.0717H198.607V27.8774H205.429Z" fill="#8A8B94"/>
</svg>
