<svg width="108" height="18" viewBox="0 0 108 18" fill="none" xmlns="http://www.w3.org/2000/svg">
<path d="M87.0023 8.21879V7.43911H85.9739V0.779684H87.0023V0H85.0328V8.21879H87.0023Z" fill="#9DA2AE"/>
<path d="M108 8.21879V0H106.031V0.779684H107.059V7.43911H106.031V8.21879H108Z" fill="#9DA2AE"/>
<path d="M90.3798 6.75747C91.1883 6.75747 91.8223 6.42739 92.2357 5.94963L91.5099 5.34158C91.2526 5.64561 90.8851 5.86277 90.3798 5.86277C89.6081 5.86277 89.0385 5.28078 89.0385 4.51637C89.0385 3.75197 89.6081 3.16998 90.3798 3.16998C90.8851 3.16998 91.2526 3.38714 91.5099 3.69116L92.2357 3.08311C91.8223 2.60536 91.1883 2.27527 90.3798 2.27527C89.0385 2.27527 88.0095 3.26553 88.0095 4.51637C88.0095 5.76722 89.0385 6.75747 90.3798 6.75747Z" fill="#9DA2AE"/>
<path d="M94.759 6.75747C96.1188 6.75747 97.1478 5.76722 97.1478 4.51637C97.1478 3.26553 96.1188 2.27527 94.759 2.27527C93.3993 2.27527 92.3703 3.26553 92.3703 4.51637C92.3703 5.76722 93.3993 6.75747 94.759 6.75747ZM94.759 5.86277C93.9597 5.86277 93.3993 5.28078 93.3993 4.51637C93.3993 3.75197 93.9597 3.16998 94.759 3.16998C95.5675 3.16998 96.1096 3.75197 96.1096 4.51637C96.1096 5.28078 95.5675 5.86277 94.759 5.86277Z" fill="#9DA2AE"/>
<path d="M100.71 6.68798H101.72V4.12548C101.72 4.02993 101.711 3.93438 101.702 3.83883C101.913 3.37845 102.272 3.16129 102.703 3.16129C103.328 3.16129 103.631 3.62167 103.631 4.23841V6.68798H104.642V4.12548C104.642 3.03968 104.017 2.27527 102.85 2.27527C102.226 2.27527 101.674 2.50981 101.344 2.91807C101.059 2.52718 100.609 2.27527 99.9839 2.27527C99.5521 2.27527 99.102 2.40557 98.7804 2.74434V2.34477H97.7698V6.68798H98.7804V3.80409C98.9641 3.39582 99.3316 3.16129 99.7726 3.16129C100.397 3.16129 100.71 3.62167 100.71 4.23841V6.68798Z" fill="#9DA2AE"/>
<path d="M3.59666 17.8267H6.5977L12.2332 8.81641H4.44429L8.47622 2.44855H5.47518L0 11.2423H7.76605L3.59666 17.8267Z" fill="#9DA2AE"/>
<path d="M8.60747 17.8267H11.4252L13.1663 14.4045H20.4971V17.8267H23.1774V2.44855H16.4652L8.60747 17.8267ZM17.9771 4.91772H20.4971V12.2169H14.2659L17.9771 4.91772Z" fill="#9DA2AE"/>
<path d="M33.1167 18C35.8887 18 38.2941 17.047 39.5083 15.7258V8.83807H33.4145L32.292 11.2206H36.8738V14.5778C36.049 15.1626 34.7662 15.5741 33.1167 15.5741C29.8866 15.5741 27.5041 13.1916 27.5041 10.1376C27.5041 7.08366 29.8866 4.70113 33.1167 4.70113C35.0182 4.70113 36.3698 5.35091 37.4465 6.49886L39.4166 4.91772C38.0192 3.33658 35.7512 2.27527 33.1167 2.27527C28.4892 2.27527 24.8009 5.71912 24.8009 10.1376C24.8009 14.5562 28.4892 18 33.1167 18Z" fill="#9DA2AE"/>
<path d="M41.4822 17.8267H44.1396V2.44855H41.4822V17.8267Z" fill="#9DA2AE"/>
<path d="M46.5677 17.8267H49.2251V4.80942H54.265L50.6454 10.5058L55.6166 17.8267H58.5948L53.5778 10.4842L58.6177 2.44855H46.5677V17.8267Z" fill="#9DA2AE"/>
<path d="M65.8424 18C69.1871 18 72.1881 16.2239 73.5398 13.04L75.9452 18L83.505 2.44855H80.5498L75.9452 12.2386L73.5169 7.08366C72.1653 4.24628 69.3475 2.27527 65.8424 2.27527C61.2149 2.27527 57.5266 5.71912 57.5266 10.1376C57.5266 14.5562 61.2149 18 65.8424 18ZM65.8424 15.5741C62.6123 15.5741 60.2298 13.1916 60.2298 10.1376C60.2298 7.08366 62.6123 4.70113 65.8424 4.70113C69.0497 4.70113 71.4322 7.08366 71.4322 10.1376C71.4322 13.1916 69.0497 15.5741 65.8424 15.5741Z" fill="#9DA2AE"/>
</svg>
